<svg xmlns="http://www.w3.org/2000/svg" viewBox="0 0 304.67 71.83"><defs><style>.cls-1{fill:#00d2ff;}.cls-2{fill:#fff;}</style></defs><g id="Layer_2" data-name="Layer 2"><g id="Layer_1-2" data-name="Layer 1"><path class="cls-1" d="M106.46,26.84V43H110v.92H91.43V43H95V5.09H91.43V4.17h19.19c9.76,0,16.37,2.07,16.37,10.41,0,9.5-5.72,12.26-15,12.26Zm0-1H109c6.06,0,6.06-6.16,6.06-11,0-8.11-2.86-9.78-6.78-9.78h-1.86Z"/><path class="cls-1" d="M127,30.69c0-8.57,6-14.32,14.81-14.32s14.81,5.75,14.81,14.32S150.6,45,141.8,45,127,39.27,127,30.69ZM141.8,17.4c-2.64,0-3.48,3.4-3.48,13.29S139.16,44,141.8,44s3.48-3.4,3.48-13.3S144.43,17.4,141.8,17.4Z"/><path class="cls-1" d="M170,21.89c0,5.75,15.76,6.39,15.76,15.08,0,4.66-4.54,8.05-14.7,8.05-3.81,0-10.65-1.09-10.65-6.44,0-2.65,1.68-5.07,4.82-5.07a4.16,4.16,0,0,1,4.26,4.32,3.7,3.7,0,0,1-3.76,4,2.73,2.73,0,0,1-2.18-.92c-.4-.4-.51-.75-1-.75a.5.5,0,0,0-.44.52c0,.92,2.74,3.28,8.35,3.28,3,0,6.17-1,6.17-3.63,0-5.75-15.87-7.65-15.87-15.53,0-4.38,3.64-8.35,13.52-8.35,7.23,0,10.32,2.82,10.32,6.39,0,2.65-1.69,5.06-4.77,5.06a4.2,4.2,0,0,1-4.26-4.37,3.7,3.7,0,0,1,3.64-4,2.8,2.8,0,0,1,2.36,1c.28.34.5.63.84.63a.5.5,0,0,0,.5-.52c0-.86-2.13-3.11-7-3.11C172.48,17.57,170,19,170,21.89Z"/><path class="cls-1" d="M188.23,18.38v-.92h3.37a52.65,52.65,0,0,0,11.22-1.09V43h3.47v.92H188.74V43h3.48V18.38Zm9.26-15.31a5.29,5.29,0,0,1,5.33,5.47,5.3,5.3,0,1,1-10.6,0A5.31,5.31,0,0,1,197.49,3.07Z"/><path class="cls-1" d="M210.89,36.62V18.38H208v-.92h.4c2.8,0,10.71-2.3,12.39-9.9h.73v9.9h5.22v.92h-5.22v21c0,1.33.23,2.36,1,2.36,1.46,0,2.41-2.59,2.75-5.75l1,.11C225.64,41.28,223.74,45,218,45,213.92,45,210.89,42.55,210.89,36.62Z"/><path class="cls-1" d="M228.28,18.38v-.92h3.36a52.65,52.65,0,0,0,11.22-1.09V43h3.48v.92H228.78V43h3.48V18.38Zm9.25-15.31a5.29,5.29,0,0,1,5.33,5.47,5.3,5.3,0,1,1-10.6,0A5.32,5.32,0,0,1,237.53,3.07Z"/><path class="cls-1" d="M249.14,21.54V18.38h-4v-.92h3.36A55.28,55.28,0,0,0,260,16.37V18.9c0,14.1,2.69,21.4,6.68,21.4s6.67-7.88,6.67-14.09c0-4.38-1.68-7.83-4.26-8.58a2.25,2.25,0,0,0-.62-.11.52.52,0,0,0-.56.51c0,.41.34.52.73.64A3.21,3.21,0,0,1,270.9,22a3.8,3.8,0,0,1-4,3.85,4.32,4.32,0,0,1-4.27-4.54,4.72,4.72,0,0,1,5-4.89c3.59,0,6.79,3.22,6.79,10.24,0,8.51-4.66,18.41-12.29,18.41C252.51,45,249.14,33.92,249.14,21.54Z"/><path class="cls-1" d="M303.55,35.35l.11-.51,1,.17c-1.07,6.16-5.22,10-11.89,10-9.82,0-15.65-4.83-15.65-14.33,0-9,5.66-14.32,14.58-14.32,6.45,0,12.85,2.18,12.85,8.74,0,6-5.84,7.89-12.34,7.89h-3.71c0,6.38,1.12,10.64,5.95,10.64C298.89,43.64,302.54,40.42,303.55,35.35ZM288.46,32h1.4c3.53,0,4.49-2.7,4.49-6.91,0-6.09-1.13-7.65-2.64-7.65-2.08,0-3.25,1.5-3.25,10.42Z"/><path class="cls-2" d="M163,52.07v-.23h4.82v.23h-.9v4.49h2.47V52.07h-.9v-.23h4.82v.23h-1v9.54h1v.24h-4.82v-.24h.9V56.79H166.9v4.82h.9v.24H163v-.24h1V52.07Z"/><path class="cls-2" d="M178.35,56.81c0-2.41,1.47-5.25,4.84-5.25s4.84,2.7,4.84,5.25-1.46,5.31-4.84,5.31S178.35,59.35,178.35,56.81Zm6.55,0c0-4-.59-5-1.71-5s-1.7.94-1.7,5,.59,5,1.7,5S184.9,60.83,184.9,56.81Z"/><path class="cls-2" d="M201.21,58.86c0,2.26-1.92,3.26-4,3.26-1.34,0-2.09-.55-2.85-.55a1,1,0,0,0-.79.55h-.23V58h.23c.73,2,1.51,3.85,3.62,3.85a1.49,1.49,0,0,0,1.6-1.61c0-1.11-1.37-1.62-2.6-2.23-1.39-.68-2.76-1.47-2.76-3.34s1.63-3.12,3.69-3.12c1.35,0,2,.51,2.74.51a.7.7,0,0,0,.65-.51h.23v3.55h-.23c-.42-1.5-1.58-3.29-3.23-3.29a1.33,1.33,0,0,0-1.51,1.47c0,1.07.93,1.61,2.16,2.2C199.35,56.17,201.21,56.73,201.21,58.86Z"/><path class="cls-2" d="M210.22,57.55v4.06h.89v.24h-4.67v-.24h.9V52.07h-.9v-.23h4.82c2.46,0,4.13.52,4.13,2.62,0,2.39-1.44,3.09-3.79,3.09Zm0-.25h.65c1.52,0,1.52-1.55,1.52-2.77,0-2-.72-2.46-1.7-2.46h-.47Z"/><path class="cls-2" d="M224.76,61.85h-5.14v-.24h1V52.07h-1v-.23h5.11v.23h-1.18v9.54h1.21Z"/><path class="cls-2" d="M231.68,61.61h1V52.07c-2.28,0-2.67,3.55-2.67,4.3h-.21V51.84h8.64v4.53h-.22c0-.75-.39-4.3-2.66-4.3v9.54h1v.24h-5Z"/><path class="cls-2" d="M246.86,52.78a1.33,1.33,0,0,1,1.44-1.1l3.37,9.93h.6v.24h-4.55v-.24h.92l-1.09-3.21h-2.33l-.49,1.49a3.61,3.61,0,0,0-.18.84c0,.74.55.88,1.27.88h.49v.24h-3.63v-.24c1.17,0,1.36-.6,1.74-1.73Zm-1.55,5.39h2.17L246.39,55Z"/><path class="cls-2" d="M256.65,61.61h.9V52.07h-.9v-.23h5v.23h-1.19v9.54h.49c2.12,0,3.19-2,3.19-4.76h.29v5h-7.75Z"/><path class="cls-2" d="M274.62,61.85h-5.14v-.24h1V52.07h-1v-.23h5.11v.23h-1.18v9.54h1.21Z"/><path class="cls-2" d="M281.54,61.61h1V52.07c-2.27,0-2.66,3.55-2.66,4.3h-.22V51.84h8.64v4.53h-.21c0-.75-.39-4.3-2.67-4.3v9.54h1.05v.24h-5Z"/><path class="cls-2" d="M298.65,57.24,300,54.08a2.64,2.64,0,0,0,.29-1c0-.61-.43-1-1.47-1h-.4v-.23h4.09v.23a1.64,1.64,0,0,0-1.7.88l-2,4.71v4h.91v.24H295v-.24h.9V57.89l-2.65-5.82h-.82v-.23h5.1v.23h-1.23Z"/><path class="cls-1" d="M71.74,30.34A30,30,0,0,1,41.25,60.11h-.83V48.31l1,0A18.25,18.25,0,1,0,23.49,29.86a18.58,18.58,0,0,0,.29,3.36H11.87a27.91,27.91,0,0,1-.19-3.56,30,30,0,0,1,60.06.68Z"/><rect class="cls-1" x="11.72" y="36.38" width="12.01" height="35.45"/><rect class="cls-1" x="11.72" y="36.38" width="12.01" height="35.45" transform="translate(71.83 36.38) rotate(90)"/></g></g></svg>